<?xml version="1.0" standalone="no"?>
<!DOCTYPE svg PUBLIC "-//W3C//DTD SVG 20010904//EN"
 "http://www.w3.org/TR/2001/REC-SVG-20010904/DTD/svg10.dtd">
<svg version="1.0" xmlns="http://www.w3.org/2000/svg"
 width="224.000000pt" height="225.000000pt" viewBox="0 0 224.000000 225.000000"
 preserveAspectRatio="xMidYMid meet">
<metadata>
Created by potrace 1.15, written by Peter Selinger 2001-2017
</metadata>
<g transform="translate(0.000000,225.000000) scale(0.100000,-0.100000)"
fill="#000000" stroke="none">
<path d="M2 1128 l3 -1123 1118 -3 1117 -2 -1 852 c0 491 -4 844 -9 832 -13
-32 -50 -54 -92 -54 -32 0 -46 9 -105 65 -37 36 -70 65 -73 65 -3 0 -37 -31
-75 -70 l-69 -70 87 -88 c51 -52 87 -98 87 -109 0 -30 -38 -73 -64 -73 -13 0
-36 10 -51 21 l-27 22 -411 -410 c-227 -226 -422 -416 -434 -422 -37 -19 -71
-12 -107 20 -29 25 -39 28 -55 20 -36 -20 -87 -13 -121 15 l-31 27 -52 -50
c-44 -42 -468 -439 -590 -552 -25 -23 -38 -30 -35 -19 1 9 130 152 286 317
156 165 294 314 308 331 l26 30 -26 31 c-28 33 -34 85 -15 121 9 17 6 25 -17
49 -22 23 -29 40 -29 70 0 39 8 47 423 462 381 381 422 425 407 437 -27 22
-37 58 -24 83 16 29 28 37 63 37 22 0 46 -18 113 -82 l84 -82 71 71 72 72 -67
71 c-62 65 -67 74 -67 114 0 37 5 48 31 70 l31 26 -841 0 -841 0 2 -1122z"/>
<path d="M1755 2239 c29 -16 444 -429 466 -464 19 -30 19 -29 19 223 l0 252
-252 0 c-188 -1 -248 -3 -233 -11z"/>
<path d="M1670 2190 c-11 -11 -20 -28 -20 -37 0 -17 438 -465 473 -484 18 -10
55 3 69 25 22 32 0 59 -225 284 -243 243 -256 253 -297 212z"/>
<path d="M1396 1947 c-21 -15 -14 -38 23 -72 l22 -19 -431 -431 c-332 -332
-430 -436 -430 -455 0 -35 345 -380 380 -380 19 0 121 96 457 432 l432 432 35
-33 c34 -33 66 -37 66 -9 0 7 -121 134 -268 281 -244 244 -269 266 -286 254z
m112 -187 c2 -18 -6 -34 -28 -55 -16 -16 -30 -33 -30 -39 0 -6 23 -34 51 -62
34 -35 50 -58 46 -68 -11 -28 -40 -17 -94 36 l-53 52 -40 -39 c-22 -21 -40
-43 -40 -49 0 -5 23 -33 51 -63 28 -29 49 -59 46 -66 -9 -28 -40 -17 -93 33
l-56 53 -39 -39 c-21 -21 -39 -42 -39 -48 0 -5 22 -33 50 -62 32 -34 48 -58
44 -68 -11 -27 -35 -18 -91 35 l-55 52 -43 -43 c-50 -49 -49 -53 14 -115 43
-41 52 -69 25 -79 -10 -4 -34 12 -68 44 -29 28 -57 50 -62 50 -6 0 -28 -18
-49 -40 l-39 -40 52 -53 c53 -54 64 -80 36 -91 -10 -4 -34 12 -68 44 -29 28
-57 50 -62 50 -6 0 -28 -18 -49 -40 l-39 -40 52 -53 c53 -54 64 -83 36 -94
-10 -4 -33 12 -69 47 -52 52 -54 53 -84 40 -25 -10 -34 -10 -46 0 -8 7 -15 18
-15 24 0 6 181 192 403 414 413 413 438 434 445 372z"/>
<path d="M1716 1879 l-70 -70 44 -44 c24 -25 49 -45 55 -45 6 0 39 29 75 65
l64 64 -40 48 c-22 25 -44 48 -50 49 -5 1 -40 -29 -78 -67z"/>
</g>
</svg>
